<svg xmlns="http://www.w3.org/2000/svg" xmlns:xlink="http://www.w3.org/1999/xlink" width="500" zoomAndPan="magnify" viewBox="0 0 375 374.999991" height="500" preserveAspectRatio="xMidYMid meet" version="1.0"><defs><g/><clipPath id="ee7b8e22ef"><path d="M 12 159 L 98 159 L 98 232.148438 L 12 232.148438 Z M 12 159 " clip-rule="nonzero"/></clipPath><clipPath id="efeb51ff37"><path d="M 49 142.605469 L 62 142.605469 L 62 156 L 49 156 Z M 49 142.605469 " clip-rule="nonzero"/></clipPath><clipPath id="9dda105876"><path d="M 6.609375 179 L 15 179 L 15 197 L 6.609375 197 Z M 6.609375 179 " clip-rule="nonzero"/></clipPath><clipPath id="41398690d1"><path d="M 95 179 L 104.679688 179 L 104.679688 197 L 95 197 Z M 95 179 " clip-rule="nonzero"/></clipPath></defs><g fill="#9c2692" fill-opacity="1"><g transform="translate(118.379132, 204.747286)"><g><path d="M 5.671875 -34.875 L 19.875 -34.875 C 23.5625 -34.875 26.816406 -34.132812 29.640625 -32.65625 C 32.460938 -31.175781 34.65625 -29.113281 36.21875 -26.46875 C 37.78125 -23.832031 38.5625 -20.820312 38.5625 -17.4375 C 38.5625 -14.050781 37.78125 -11.035156 36.21875 -8.390625 C 34.65625 -5.753906 32.460938 -3.695312 29.640625 -2.21875 C 26.816406 -0.738281 23.5625 0 19.875 0 L 5.671875 0 Z M 19.671875 -3.1875 C 22.734375 -3.1875 25.410156 -3.789062 27.703125 -5 C 29.992188 -6.21875 31.769531 -7.894531 33.03125 -10.03125 C 34.289062 -12.175781 34.921875 -14.644531 34.921875 -17.4375 C 34.921875 -20.226562 34.289062 -22.691406 33.03125 -24.828125 C 31.769531 -26.972656 29.992188 -28.648438 27.703125 -29.859375 C 25.410156 -31.078125 22.734375 -31.6875 19.671875 -31.6875 L 9.359375 -31.6875 L 9.359375 -3.1875 Z M 19.671875 -3.1875 "/></g></g></g><g fill="#9c2692" fill-opacity="1"><g transform="translate(156.931746, 204.747286)"><g><path d="M 15.640625 0.25 C 13.117188 0.25 10.84375 -0.320312 8.8125 -1.46875 C 6.789062 -2.613281 5.195312 -4.195312 4.03125 -6.21875 C 2.875 -8.25 2.296875 -10.539062 2.296875 -13.09375 C 2.296875 -15.65625 2.875 -17.945312 4.03125 -19.96875 C 5.195312 -22 6.789062 -23.578125 8.8125 -24.703125 C 10.84375 -25.835938 13.117188 -26.40625 15.640625 -26.40625 C 18.160156 -26.40625 20.429688 -25.835938 22.453125 -24.703125 C 24.484375 -23.578125 26.070312 -22 27.21875 -19.96875 C 28.363281 -17.945312 28.9375 -15.65625 28.9375 -13.09375 C 28.9375 -10.539062 28.363281 -8.25 27.21875 -6.21875 C 26.070312 -4.195312 24.484375 -2.613281 22.453125 -1.46875 C 20.429688 -0.320312 18.160156 0.25 15.640625 0.25 Z M 15.640625 -2.890625 C 17.503906 -2.890625 19.171875 -3.3125 20.640625 -4.15625 C 22.117188 -5 23.273438 -6.203125 24.109375 -7.765625 C 24.941406 -9.328125 25.359375 -11.101562 25.359375 -13.09375 C 25.359375 -15.09375 24.941406 -16.867188 24.109375 -18.421875 C 23.273438 -19.984375 22.117188 -21.1875 20.640625 -22.03125 C 19.171875 -22.882812 17.503906 -23.3125 15.640625 -23.3125 C 13.785156 -23.3125 12.117188 -22.882812 10.640625 -22.03125 C 9.160156 -21.1875 7.992188 -19.984375 7.140625 -18.421875 C 6.296875 -16.867188 5.875 -15.09375 5.875 -13.09375 C 5.875 -11.101562 6.296875 -9.328125 7.140625 -7.765625 C 7.992188 -6.203125 9.160156 -5 10.640625 -4.15625 C 12.117188 -3.3125 13.785156 -2.890625 15.640625 -2.890625 Z M 15.640625 -2.890625 "/></g></g></g><g fill="#9c2692" fill-opacity="1"><g transform="translate(185.572043, 204.747286)"><g><path d="M 23.40625 -2.9375 L 23.40625 0 L 2.09375 0 L 2.09375 -2.34375 L 18.578125 -23.21875 L 2.390625 -23.21875 L 2.390625 -26.203125 L 23.109375 -26.203125 L 23.109375 -23.859375 L 6.625 -2.9375 Z M 23.40625 -2.9375 "/></g></g></g><g fill="#9c2692" fill-opacity="1"><g transform="translate(208.434319, 204.747286)"><g><path d="M 15.640625 0.25 C 13.117188 0.25 10.84375 -0.320312 8.8125 -1.46875 C 6.789062 -2.613281 5.195312 -4.195312 4.03125 -6.21875 C 2.875 -8.25 2.296875 -10.539062 2.296875 -13.09375 C 2.296875 -15.65625 2.875 -17.945312 4.03125 -19.96875 C 5.195312 -22 6.789062 -23.578125 8.8125 -24.703125 C 10.84375 -25.835938 13.117188 -26.40625 15.640625 -26.40625 C 18.160156 -26.40625 20.429688 -25.835938 22.453125 -24.703125 C 24.484375 -23.578125 26.070312 -22 27.21875 -19.96875 C 28.363281 -17.945312 28.9375 -15.65625 28.9375 -13.09375 C 28.9375 -10.539062 28.363281 -8.25 27.21875 -6.21875 C 26.070312 -4.195312 24.484375 -2.613281 22.453125 -1.46875 C 20.429688 -0.320312 18.160156 0.25 15.640625 0.25 Z M 15.640625 -2.890625 C 17.503906 -2.890625 19.171875 -3.3125 20.640625 -4.15625 C 22.117188 -5 23.273438 -6.203125 24.109375 -7.765625 C 24.941406 -9.328125 25.359375 -11.101562 25.359375 -13.09375 C 25.359375 -15.09375 24.941406 -16.867188 24.109375 -18.421875 C 23.273438 -19.984375 22.117188 -21.1875 20.640625 -22.03125 C 19.171875 -22.882812 17.503906 -23.3125 15.640625 -23.3125 C 13.785156 -23.3125 12.117188 -22.882812 10.640625 -22.03125 C 9.160156 -21.1875 7.992188 -19.984375 7.140625 -18.421875 C 6.296875 -16.867188 5.875 -15.09375 5.875 -13.09375 C 5.875 -11.101562 6.296875 -9.328125 7.140625 -7.765625 C 7.992188 -6.203125 9.160156 -5 10.640625 -4.15625 C 12.117188 -3.3125 13.785156 -2.890625 15.640625 -2.890625 Z M 15.640625 -2.890625 "/></g></g></g><g fill="#9c2692" fill-opacity="1"><g transform="translate(226.821551, 204.747286)"><g><path d="M 11.359375 -28.296875 L 0.203125 -28.296875 L 0.203125 -34.875 L 30.578125 -34.875 L 30.578125 -28.296875 L 19.421875 -28.296875 L 19.421875 0 L 11.359375 0 Z M 11.359375 -28.296875 "/></g></g></g><g fill="#9c2692" fill-opacity="1"><g transform="translate(255.013556, 204.747286)"><g><path d="M 29.84375 -13.296875 C 29.84375 -13.203125 29.789062 -12.503906 29.6875 -11.203125 L 9.421875 -11.203125 C 9.785156 -9.546875 10.644531 -8.234375 12 -7.265625 C 13.363281 -6.304688 15.054688 -5.828125 17.078125 -5.828125 C 18.472656 -5.828125 19.710938 -6.035156 20.796875 -6.453125 C 21.878906 -6.867188 22.882812 -7.523438 23.8125 -8.421875 L 27.9375 -3.9375 C 25.414062 -1.039062 21.734375 0.40625 16.890625 0.40625 C 13.867188 0.40625 11.191406 -0.179688 8.859375 -1.359375 C 6.535156 -2.546875 4.742188 -4.1875 3.484375 -6.28125 C 2.222656 -8.375 1.59375 -10.75 1.59375 -13.40625 C 1.59375 -16.019531 2.210938 -18.378906 3.453125 -20.484375 C 4.703125 -22.597656 6.414062 -24.242188 8.59375 -25.421875 C 10.769531 -26.609375 13.203125 -27.203125 15.890625 -27.203125 C 18.515625 -27.203125 20.890625 -26.632812 23.015625 -25.5 C 25.140625 -24.375 26.804688 -22.753906 28.015625 -20.640625 C 29.234375 -18.535156 29.84375 -16.085938 29.84375 -13.296875 Z M 15.9375 -21.3125 C 14.175781 -21.3125 12.695312 -20.8125 11.5 -19.8125 C 10.3125 -18.820312 9.582031 -17.460938 9.3125 -15.734375 L 22.515625 -15.734375 C 22.242188 -17.429688 21.507812 -18.785156 20.3125 -19.796875 C 19.125 -20.804688 17.664062 -21.3125 15.9375 -21.3125 Z M 15.9375 -21.3125 "/></g></g></g><g fill="#9c2692" fill-opacity="1"><g transform="translate(283.853097, 204.747286)"><g><path d="M 16.53125 0.40625 C 13.675781 0.40625 11.109375 -0.179688 8.828125 -1.359375 C 6.554688 -2.546875 4.78125 -4.1875 3.5 -6.28125 C 2.226562 -8.375 1.59375 -10.75 1.59375 -13.40625 C 1.59375 -16.0625 2.226562 -18.429688 3.5 -20.515625 C 4.78125 -22.609375 6.554688 -24.242188 8.828125 -25.421875 C 11.109375 -26.609375 13.675781 -27.203125 16.53125 -27.203125 C 19.351562 -27.203125 21.816406 -26.609375 23.921875 -25.421875 C 26.035156 -24.242188 27.578125 -22.5625 28.546875 -20.375 L 22.515625 -17.140625 C 21.117188 -19.597656 19.109375 -20.828125 16.484375 -20.828125 C 14.460938 -20.828125 12.785156 -20.160156 11.453125 -18.828125 C 10.128906 -17.503906 9.46875 -15.695312 9.46875 -13.40625 C 9.46875 -11.113281 10.128906 -9.300781 11.453125 -7.96875 C 12.785156 -6.644531 14.460938 -5.984375 16.484375 -5.984375 C 19.140625 -5.984375 21.148438 -7.207031 22.515625 -9.65625 L 28.546875 -6.375 C 27.578125 -4.25 26.035156 -2.585938 23.921875 -1.390625 C 21.816406 -0.191406 19.351562 0.40625 16.53125 0.40625 Z M 16.53125 0.40625 "/></g></g></g><g fill="#9c2692" fill-opacity="1"><g transform="translate(310.700225, 204.747286)"><g><path d="M 19.875 -27.203125 C 23.195312 -27.203125 25.878906 -26.203125 27.921875 -24.203125 C 29.960938 -22.210938 30.984375 -19.257812 30.984375 -15.34375 L 30.984375 0 L 23.21875 0 L 23.21875 -14.140625 C 23.21875 -16.265625 22.75 -17.847656 21.8125 -18.890625 C 20.882812 -19.941406 19.539062 -20.46875 17.78125 -20.46875 C 15.820312 -20.46875 14.257812 -19.863281 13.09375 -18.65625 C 11.9375 -17.445312 11.359375 -15.644531 11.359375 -13.25 L 11.359375 0 L 3.59375 0 L 3.59375 -36.953125 L 11.359375 -36.953125 L 11.359375 -24.015625 C 12.390625 -25.035156 13.632812 -25.820312 15.09375 -26.375 C 16.550781 -26.925781 18.144531 -27.203125 19.875 -27.203125 Z M 19.875 -27.203125 "/></g></g></g><path fill="#faf9f6" d="M 70.324219 165.449219 L 40.496094 165.449219 C 34.347656 165.449219 28.75 167.96875 24.691406 172.027344 C 20.632812 176.085938 18.109375 181.683594 18.109375 187.839844 C 18.109375 193.992188 20.632812 199.585938 24.691406 203.652344 C 28.75 207.710938 34.347656 210.226562 40.496094 210.226562 L 48.003906 210.226562 C 50.050781 210.226562 51.710938 211.890625 51.710938 213.9375 L 51.710938 221.847656 L 62.921875 211.394531 C 63.601562 210.679688 64.558594 210.226562 65.625 210.226562 L 70.324219 210.226562 C 76.476562 210.226562 82.078125 207.710938 86.136719 203.652344 C 90.191406 199.585938 92.71875 193.992188 92.71875 187.839844 C 92.71875 181.683594 90.191406 176.085938 86.136719 172.027344 C 82.078125 167.96875 76.476562 165.449219 70.324219 165.449219 Z M 70.324219 165.449219 " fill-opacity="1" fill-rule="nonzero"/><g clip-path="url(#ee7b8e22ef)"><path fill="#9c2692" d="M 41.253906 159.839844 L 69.570312 159.839844 C 77.351562 159.839844 84.429688 163.023438 89.550781 168.144531 C 94.679688 173.273438 97.863281 180.347656 97.863281 188.132812 C 97.863281 195.917969 94.679688 202.992188 89.550781 208.117188 C 84.429688 213.246094 77.351562 216.425781 69.570312 216.425781 L 66.480469 216.425781 L 50.769531 231.0625 C 49.351562 232.382812 47.128906 232.304688 45.808594 230.886719 C 45.179688 230.207031 44.867188 229.351562 44.867188 228.488281 L 44.859375 228.488281 L 44.859375 216.425781 L 41.253906 216.425781 C 33.472656 216.425781 26.398438 213.246094 21.269531 208.117188 C 16.148438 202.992188 12.960938 195.917969 12.960938 188.132812 C 12.960938 180.347656 16.148438 173.273438 21.269531 168.144531 C 26.398438 163.023438 33.472656 159.839844 41.253906 159.839844 Z M 69.570312 166.875 L 41.253906 166.875 C 35.410156 166.875 30.101562 169.269531 26.25 173.121094 C 22.394531 176.976562 20.003906 182.289062 20.003906 188.132812 C 20.003906 193.976562 22.394531 199.285156 26.25 203.144531 C 30.101562 206.992188 35.410156 209.390625 41.253906 209.390625 L 48.382812 209.390625 C 50.324219 209.390625 51.894531 210.960938 51.894531 212.902344 L 51.894531 220.414062 L 62.542969 210.496094 C 63.183594 209.8125 64.09375 209.390625 65.105469 209.390625 L 69.570312 209.390625 C 75.410156 209.390625 80.726562 206.992188 84.578125 203.144531 C 88.433594 199.285156 90.824219 193.976562 90.824219 188.132812 C 90.824219 182.289062 88.433594 176.976562 84.578125 173.121094 C 80.726562 169.269531 75.410156 166.875 69.570312 166.875 Z M 69.570312 166.875 " fill-opacity="1" fill-rule="nonzero"/></g><path fill="#9c2692" d="M 53.019531 149.207031 L 57.804688 149.207031 L 57.804688 163.722656 L 53.019531 163.722656 Z M 53.019531 149.207031 " fill-opacity="1" fill-rule="evenodd"/><g clip-path="url(#efeb51ff37)"><path fill="#9c2692" d="M 55.410156 142.605469 C 58.875 142.605469 61.679688 145.410156 61.679688 148.875 C 61.679688 152.335938 58.875 155.140625 55.410156 155.140625 C 51.949219 155.140625 49.144531 152.335938 49.144531 148.875 C 49.144531 145.410156 51.949219 142.605469 55.410156 142.605469 Z M 55.410156 142.605469 " fill-opacity="1" fill-rule="evenodd"/></g><g clip-path="url(#9dda105876)"><path fill="#9c2692" d="M 14.996094 196.5 C 10.382812 196.5 6.636719 192.753906 6.636719 188.132812 C 6.636719 183.511719 10.382812 179.769531 14.996094 179.769531 Z M 14.996094 196.5 " fill-opacity="1" fill-rule="evenodd"/></g><g clip-path="url(#41398690d1)"><path fill="#9c2692" d="M 95.9375 196.5 C 100.558594 196.5 104.304688 192.753906 104.304688 188.132812 C 104.304688 183.511719 100.558594 179.769531 95.9375 179.769531 Z M 95.9375 196.5 " fill-opacity="1" fill-rule="evenodd"/></g><path fill="#9c2692" d="M 43.949219 178.121094 C 45.996094 178.121094 47.671875 179.796875 47.671875 181.835938 L 47.671875 193.101562 C 47.671875 195.144531 45.996094 196.816406 43.949219 196.816406 C 41.902344 196.816406 40.234375 195.144531 40.234375 193.101562 L 40.234375 181.835938 C 40.234375 179.796875 41.902344 178.121094 43.949219 178.121094 Z M 43.949219 178.121094 " fill-opacity="1" fill-rule="evenodd"/><path fill="#9c2692" d="M 66.875 178.121094 C 68.917969 178.121094 70.59375 179.796875 70.59375 181.835938 L 70.59375 193.101562 C 70.59375 195.144531 68.917969 196.816406 66.875 196.816406 C 64.828125 196.816406 63.152344 195.144531 63.152344 193.101562 L 63.152344 181.835938 C 63.152344 179.796875 64.828125 178.121094 66.875 178.121094 Z M 66.875 178.121094 " fill-opacity="1" fill-rule="evenodd"/></svg>